<?xml version="1.0" encoding="UTF-8" standalone="no"?>
<!-- Created with Inkscape (http://www.inkscape.org/) -->
<svg id="svg3335" xmlns:rdf="http://www.w3.org/1999/02/22-rdf-syntax-ns#" xmlns="http://www.w3.org/2000/svg" xml:space="preserve" height="100" width="100" version="1.1" xmlns:cc="http://creativecommons.org/ns#" xmlns:dc="http://purl.org/dc/elements/1.1/"><metadata id="metadata3341"><rdf:RDF><cc:Work rdf:about=""><dc:format>image/svg+xml</dc:format><dc:type rdf:resource="http://purl.org/dc/dcmitype/StillImage"/><dc:title/></cc:Work></rdf:RDF></metadata><defs id="defs3339"><clipPath id="clipPath3373" clipPathUnits="userSpaceOnUse"><path id="path3375" d="m1199.5 2641.8h1133.2v-1538.4h-1133.2v1538.4z"/></clipPath><clipPath id="clipPath3389" clipPathUnits="userSpaceOnUse"><path id="path3391" d="m2115.9 1497.8h99.96v-135.36h-99.96v135.36z"/></clipPath><clipPath id="clipPath3405" clipPathUnits="userSpaceOnUse"><path id="path3407" d="m2210.4 1547.1h33.35v-34.47h-33.35v34.47z"/></clipPath><clipPath id="clipPath3421" clipPathUnits="userSpaceOnUse"><path id="path3423" d="m1747.8 1580.2h54.28v-16.72h-54.28v16.72z"/></clipPath><clipPath id="clipPath3457" clipPathUnits="userSpaceOnUse"><path id="path3459" d="m1499.4 1814h248.31v-266.72h-248.31v266.72z"/></clipPath><clipPath id="clipPath3501" clipPathUnits="userSpaceOnUse"><path id="path3503" d="m1690.9 1374.9h228.47v-71.98h-228.47v71.98z"/></clipPath><clipPath id="clipPath3521" clipPathUnits="userSpaceOnUse"><path id="path3523" d="m1190.4 2530.5h584.6v-511.36h-584.6v511.36z"/></clipPath></defs><g id="g3343" transform="matrix(1.25 0 0 -1.25 -686.12 1012.4)"><g id="g3353" transform="matrix(.033597 0 0 .033597 590.66 807.73)"><path id="path3355" fill="#bfd578" d="m0 0c619.56 0 1121.8-503.69 1121.8-1125 0-661.34-542.24-1125-1121.8-1125-619.56 0-1121.8 503.68-1121.8 1125 0 621.31 502.24 1125 1121.8 1125"/></g><g id="g3357" transform="matrix(.033597 0 0 .033597 571.02 775.51)"><path id="path3359" fill="#252d16" d="m0 0s67.91 45.857 94.732 40.493c26.822-5.365-17.88 87.616-17.88 82.252 0-5.36-76.852-122.74-76.852-122.74"/></g><g id="g3361" transform="matrix(.033597 0 0 .033597 610.18 775.61)"><path id="path3363" fill="#252d16" d="m0 0s-48.038 17.759-74.861 19.547c-26.821 1.788 21.459 60.796 21.459 60.796l53.402-80.343z"/></g><g id="g3365" transform="matrix(.033597 0 0 .033597 605.04 783.9)"><path id="path3367" fill="#bf9471" d="m0 0c-67.621 29.748-194.96 62.664-427.59 61.855-234.92-0.793-362.47-34.145-429.57-63.661-90.86-108.52-146.17-260.19-146.17-448.97 0-333 171.81-614.51 407.93-706.56 53.014-20.653 131.1-76.893 167.54-76.893 38.67 0 124.41 58.253 181.47 82.544 228.9 97.487 394.01 374.46 394.01 700.9-0.02 189.83-55.895 342.16-147.64 450.81"/></g><g id="g3369" transform="matrix(.033597 0 0 .033597 531.03 707.67)"><g id="g3377"><g id="g3379" opacity=".14999" clip-path="url(#clipPath3373)"><g id="g3381" transform="translate(1254.2 2064.6)"><path id="path3383" d="m0 0c0.755 0.563 1.52 1.131 2.295 1.705-0.775-0.574-1.54-1.142-2.295-1.705m-8.897-6.729c2.746 2.106 5.684 4.331 8.802 6.658-3.118-2.326-6.056-4.552-8.802-6.658m-1.954-1.502c0.641 0.493 1.291 0.992 1.952 1.5-0.661-0.508-1.311-1.007-1.952-1.5m-1.988-1.54c0.596 0.462 1.204 0.932 1.821 1.41-0.617-0.478-1.225-0.948-1.821-1.41m-7.113-5.593c2.14 1.705 4.487 3.552 7.029 5.528-2.542-1.976-4.889-3.823-7.029-5.528m22.306 17.114c4.018 2.978 8.317 6.105 12.867 9.352-4.55-3.247-8.849-6.374-12.867-9.352m561.37 431.76c1.949 46.602 5.632 25.934 11.562 78.668 9.59 85.258-47.234 62.282-47.234 62.282l0.002-139.8c-248.44-1.4-462.78-150.52-563.33-462.65 0 0 5.457 4.764 15.269 12.576-2.142-1.705-4.074-3.265-5.791-4.661-18.324-64.769-28.861-139.13-28.861-225.23 0-333 171.86-614.51 407.98-706.56 6.63-2.583 12.988-5.726 20.988-9.243v0.196c-104 47.295-252.15 152.44-315.69 467.32-52.335 259.39 28.69 459.51 121.13 593.65-64.36-22.662-124.34-60.321-164.49-88.948 67.454 48.096 190.78 121.69 297.03 106.82 155.48-21.753 268.12-218.09 280.9-214.32 12.775 3.772 54.703 184.3 141.56 214.32 86.855 30.024 343.77-142.76 343.77-142.76-96.422 299.33-279.35 441.68-514.79 458.34"/></g></g></g></g><g id="g3385" transform="matrix(.033597 0 0 .033597 531.03 707.67)"><g id="g3393"><g id="g3395" opacity=".10001" clip-path="url(#clipPath3389)"><g id="g3397" transform="translate(2196.6 1409.4)"><path id="path3399" fill="#fff" d="m0 0c-21.768-35.583-53.172-55.179-70.143-43.766-16.97 11.41-13.08 49.508 8.689 85.091 21.77 35.584 53.175 55.178 70.143 43.768 16.97-11.411 13.081-49.508-8.689-85.093"/></g></g></g></g><g id="g3401" transform="matrix(.033597 0 0 .033597 531.03 707.67)"><g id="g3409"><g id="g3411" opacity=".10001" clip-path="url(#clipPath3405)"><g id="g3413" transform="translate(2241.2 1520.4)"><path id="path3415" fill="#fff" d="m0 0c-4.848-7.926-15.125-10.085-22.952-4.822-7.827 5.264-10.241 15.956-5.392 23.885 4.85 7.926 15.127 10.086 22.952 4.821 7.83-5.263 10.242-15.956 5.392-23.884"/></g></g></g></g><g id="g3417" transform="matrix(.033597 0 0 .033597 531.03 707.67)"><g id="g3425"><g id="g3427" opacity=".39999" clip-path="url(#clipPath3421)"><g id="g3429" transform="translate(1747.8 1563.5)"><path id="path3431" fill="#040505" d="m0 0c1.177 2.555 2.877 4.685 4.735 6.642 1.879 1.941 4.006 3.626 6.315 5.091 4.621 2.887 10.123 4.795 16.043 4.979 5.957 0.183 11.748-1.567 16.459-4.515 2.357-1.493 4.496-3.244 6.33-5.273 1.809-2.043 3.422-4.28 4.404-6.924-5.345 1.342-9.932 2.618-14.377 3.479-4.417 0.874-8.513 1.351-12.483 1.24-4.006-0.101-8.248-0.777-12.766-1.68-4.552-0.885-9.233-2.064-14.66-3.039"/></g></g></g></g><g id="g3453" transform="matrix(.033597 0 0 .033597 531.03 707.67)"><g id="g3461"><g id="g3463" opacity=".14999" clip-path="url(#clipPath3457)"><g id="g3465" transform="translate(1565.4 1796.1)"><path id="path3467" fill="#040505" d="m0 0c52.381 30.581 116.87 20.669 158.08-20.117-38.94 35.106-97.205 42.825-144.85 15.011-59.462-34.704-79.837-111.58-45.525-171.71 34.315-60.131 110.33-80.743 169.79-46.041 19.212 11.215 34.34 26.837 44.863 44.87-11.201-21.397-28.291-39.972-50.555-52.968-63.062-36.807-143.69-14.945-180.08 48.833-36.405 63.78-14.791 145.32 48.275 182.13"/></g></g></g></g><g id="g3469" transform="matrix(.033597 0 0 .033597 589.77 766.3)"><path id="path3471" fill="#fff" d="m0 0c34.317-60.132 13.936-137.01-45.522-171.72-59.457-34.702-135.47-14.09-169.79 46.041-34.312 60.133-13.937 137.02 45.526 171.72 59.45 34.707 135.46 14.091 169.78-46.04"/></g><g id="g3485" transform="matrix(.033597 0 0 .033597 586.57 762.73)"><path id="path3487" fill="#31401b" d="m0 0c20.717-8.526 44.148 2.193 52.365 23.94 8.203 21.716-1.914 46.249-22.627 54.772-20.704 8.52-44.136-2.204-52.343-23.925-8.215-21.743 1.908-46.269 22.605-54.787"/></g><g id="g3489" transform="matrix(.033597 0 0 .033597 586.57 762.73)"><path id="path3491" d="m0 0c20.717-8.526 44.148 2.193 52.365 23.94 8.203 21.716-1.914 46.249-22.627 54.772-20.704 8.52-44.136-2.204-52.343-23.925-8.215-21.743 1.908-46.269 22.605-54.787z" stroke="#bfd578" stroke-miterlimit="10" stroke-width="7" fill="none"/></g><g id="g3493" transform="matrix(.033597 0 0 .033597 587.9 765.01)"><path id="path3495" fill="#fdfdfc" d="m0 0c6.592-2.713 9.814-10.525 7.204-17.438-2.614-6.921-10.076-10.34-16.671-7.626-6.594 2.708-9.812 10.527-7.197 17.45 2.607 6.906 10.076 10.327 16.664 7.614"/></g><g id="g3497" transform="matrix(.033597 0 0 .033597 531.03 707.67)"><g id="g3505"><g id="g3507" opacity=".39999" clip-path="url(#clipPath3501)"><g id="g3509" transform="translate(1918.3 1365.4)"><path id="path3511" d="m0 0c-5.951-8.874-13.268-16.944-21.34-23.84-8.086-6.926-16.973-12.767-26.279-17.637-18.651-9.729-38.887-15.647-59.34-18.679-20.477-3.003-41.273-3.146-61.654-0.518-20.354 2.657-40.412 8.07-58.762 17.061 18.766-8.077 38.893-12.44 59.075-14.077 20.204-1.606 40.577-0.446 60.321 3.446 19.718 3.913 38.895 10.613 55.999 20.64 17.085 9.999 31.943 23.503 41.917 40.141 1.706 2.844 5.392 3.767 8.236 2.062 2.844-1.704 3.767-5.392 2.062-8.236-0.048-0.081-0.098-0.161-0.15-0.239l-0.084-0.124z"/></g></g></g></g><g id="g3513" transform="matrix(.033597 0 0 .033597 591.81 792.65)"><path id="path3515" fill="#31401b" d="m0 0c2.014 46.602 5.819 25.935 11.943 78.667 9.907 85.258-48.788 62.283-48.788 62.283l0.003-139.8c-256.62-1.395-478.02-199.24-581.87-511.37 0 0 198.4 216.4 359 194.64 160.59-21.756 239.72-249.34 252.92-245.56 13.196 3.772 93.731 215.54 183.44 245.56 89.713 30.025 373.84-194.64 373.84-194.64-99.61 299.33-307.3 493.56-550.49 510.22"/></g><g id="g3517" transform="matrix(.033597 0 0 .033597 531.03 707.67)"><g id="g3525"><g id="g3527" opacity=".2" clip-path="url(#clipPath3521)"><g id="g3529" transform="translate(1549.4 2213.8)"><path id="path3531" d="m0 0c97.563-13.217 165.06-102.4 205.97-169.52-33.87 65.87-178.72 276.39-144.8 364.05 29.336 75.83 164.43 114.44 164.43 114.44l-3.573 7.747c-256.26-1.825-477.28-199.58-581.03-511.36 0 0 198.4 216.4 359 194.64"/></g></g></g></g><g id="g3533" transform="matrix(.033597 0 0 .033597 591.23 774.22)"><path id="path3535" d="m0 0c3.236-5.427 5.834-9.308 7.807-11.238-2.268 3.099-4.871 6.817-7.807 11.238"/></g><g id="g3537" transform="matrix(.033597 0 0 .033597 556.36 749.25)"><path id="path3539" fill="#31401b" d="m0 0c7.496 1.494 251.77 67.852 119.88 271.12-131.9 203.26-187.85 209.9-184.98 240.64-12.152-46.65-102.84-249.43-106.55-331.96-3.68-82.548 12.44-124.77 70.36-164.6 36.607-25.204 80.102-19.398 101.29-15.2"/></g><g id="g3541" transform="matrix(.033597 0 0 .033597 557.95 748.26)"><path id="path3543" fill="#e5e6e5" d="m0 0c-4.285 2.997-8.208 6.514-11.779 10.148-3.588 3.651-6.896 7.491-10.026 11.432-6.255 7.888-11.816 16.178-17.018 24.642-10.364 16.954-19.288 34.619-27.398 52.609-8.08 18.004-15.32 36.361-21.604 55.061-3.13 9.354-6.021 18.795-8.505 28.371-1.237 4.788-2.371 9.612-3.334 14.487-0.957 4.871-1.754 9.741-2.486 14.615-2.874 19.494-4.864 39.027-6.678 58.575-1.787 19.548-3.293 39.113-4.615 58.687-1.317 19.576-2.449 39.161-3.336 58.757-0.44 9.799-0.819 19.6-1.077 29.405-0.127 4.902-0.224 9.806-0.257 14.71-0.022 4.903-0.028 9.811 0.261 14.707-0.185-4.9-0.074-9.803 0.051-14.702 0.137-4.899 0.338-9.796 0.57-14.692 0.465-9.792 1.053-19.577 1.7-29.358 1.302-19.562 2.849-39.106 4.58-58.632 1.736-19.525 3.656-39.032 5.853-58.501 2.223-19.459 4.627-38.916 7.885-58.163 0.826-4.806 1.715-9.596 2.75-14.326 1.037-4.725 2.248-9.426 3.565-14.103 2.638-9.354 5.689-18.614 8.977-27.788 6.602-18.343 14.154-36.36 22.509-53.963 8.377-17.585 17.553-34.805 28-51.103 5.236-8.131 10.797-16.037 16.889-23.39 6.119-7.337 12.703-14.225 20.254-19.303l-5.719-8.204z"/></g><g id="g3545" transform="matrix(.033597 0 0 .033597 560.31 749.08)"><path id="path3547" fill="#31401b" d="m0 0s-279.98 21.665-289.87-205.79c-5.219-119.88-33.352-299.2-33.352-299.2s33.293-4.572 165.66 56.311c128.8 59.235 231.47 352.36 209.12 395.28-22.343 42.935 0.172 55.033-51.56 53.4"/></g><g id="g3549" transform="matrix(.033597 0 0 .033597 562.72 749.44)"><path id="path3551" fill="#e5e6e5" d="m0 0c-1.809-2.642-3.82-4.983-5.824-7.186-2.016-2.206-4.076-4.3-6.159-6.347-4.166-4.09-8.415-7.995-12.689-11.856-8.55-7.706-17.193-15.215-25.806-22.748-17.237-15.043-34.364-30.148-51.13-45.648-33.548-30.966-65.714-63.453-95.515-98.054-29.795-34.581-57.252-71.253-81.242-110.16-23.988-38.881-44.477-80.017-60.235-123 14.973 43.263 34.743 84.852 58.095 124.29 23.355 39.461 50.257 76.797 79.566 112.09 29.308 35.313 61.056 68.566 94.191 100.29 16.558 15.875 33.483 31.358 50.453 46.721 8.475 7.689 16.971 15.347 25.279 23.114 4.149 3.887 8.252 7.803 12.18 11.802 1.963 1.999 3.879 4.021 5.684 6.072 1.808 2.06 3.489 4.109 4.871 6.22l8.273-5.599z"/></g><g id="g3553" transform="matrix(.033597 0 0 .033597 564.9 747.2)"><path id="path3555" fill="#31401b" d="m0 0c4.532 2.936 160.76 87.562 191.08-108.84 30.304-196.41 4.987-229.6 21.194-247.46-172.69 57.987-192.09 91.175-233.57 141.28-41.465 50.13-56.708 87.64-46.328 142.73 6.566 34.833 54.826 63.949 67.628 72.29"/></g><g id="g3557" transform="matrix(.033597 0 0 .033597 565.52 748.58)"><path id="path3559" fill="#e5e6e5" d="m0 0c-1.467-7.334-1.752-15.224-1.763-23.097 0.022-7.893 0.435-15.845 1.054-23.792 1.258-15.899 3.34-31.793 5.938-47.598 2.616-15.803 5.761-31.535 9.572-47.09 1.913-7.774 3.994-15.504 6.342-23.137 2.358-7.623 4.947-15.184 8.126-22.414 3.157-7.187 7.282-14.019 11.586-20.758 4.331-6.724 8.92-13.31 13.625-19.818 9.422-13.011 19.299-25.723 29.342-38.3 10.052-12.573 20.296-25 30.637-37.349 10.32-12.366 20.836-24.571 31.149-36.949-10.628 12.105-21.457 24.034-32.096 36.135-10.662 12.082-21.232 24.249-31.621 36.577-10.384 12.335-20.609 24.813-30.42 37.649-4.901 6.422-9.698 12.936-14.264 19.642-4.535 6.711-8.957 13.604-12.484 21.089-3.5 7.436-6.332 15.075-8.936 22.771-2.586 7.702-4.896 15.477-7.035 23.293-4.264 15.636-7.848 31.434-10.908 47.342-3.037 15.913-5.563 31.934-7.268 48.118-0.841 8.094-1.476 16.228-1.713 24.444-0.113 4.109-0.129 8.237 0.039 12.406 0.172 4.153 0.511 8.413 1.262 12.647l9.838-1.797z"/></g><path id="path3894" d="m595.87 767.12c-1.7146 0-3.1495-1.1418-3.7162-2.7655 0.73531 1.4236 2.2059 2.4198 3.889 2.4198 1.071 0 2.0327-0.41337 2.7943-1.0659-0.73137 0.8715-1.7866 1.4116-2.9672 1.4116zm-0.34569-1.7861c-1.4509 0-2.7122-0.67448-3.4281-1.642 0.86343 0.68422 2.0529 1.0947 3.3705 1.0947 1.4781 0 2.7834-0.54647 3.6585-1.3828-0.66261 1.1276-2.0088 1.9301-3.6009 1.9301z" fill="#735944"/></g></svg>
